<?xml version="1.0" standalone="no"?>
<!DOCTYPE svg PUBLIC "-//W3C//DTD SVG 20010904//EN"
 "http://www.w3.org/TR/2001/REC-SVG-20010904/DTD/svg10.dtd">
<svg version="1.0" xmlns="http://www.w3.org/2000/svg"
 width="1601.000000pt" height="1601.000000pt" viewBox="0 0 1601.000000 1601.000000"
 preserveAspectRatio="xMidYMid meet">
<metadata>
Created by potrace 1.14, written by Peter Selinger 2001-2017
</metadata>
<g transform="translate(0.000000,1601.000000) scale(0.100000,-0.100000)"
fill="#000000" stroke="none">
<path d="M8814 14465 c0 -19 5 -25 23 -25 16 0 23 -6 23 -20 0 -17 7 -20 45
-20 41 0 45 -2 45 -25 0 -23 4 -25 45 -25 41 0 45 -2 45 -25 0 -16 6 -25 15
-25 9 0 15 -9 15 -25 0 -23 4 -25 45 -25 41 0 45 -2 45 -25 0 -18 5 -25 20
-25 15 0 20 -7 20 -25 0 -20 5 -25 25 -25 18 0 25 -5 25 -19 0 -10 9 -21 20
-24 13 -3 18 -11 15 -26 -3 -19 1 -21 41 -21 40 0 44 -2 44 -25 0 -18 5 -25
20 -25 15 0 20 -7 20 -25 0 -20 5 -25 25 -25 20 0 25 -5 25 -25 0 -18 5 -25
20 -25 13 0 20 -7 20 -20 0 -13 7 -20 20 -20 16 0 20 -7 20 -30 0 -23 4 -30
20 -30 13 0 20 -7 20 -20 0 -15 7 -20 25 -20 21 0 25 -5 25 -30 0 -23 4 -30
20 -30 17 0 20 -7 20 -40 0 -36 3 -40 25 -40 21 0 25 -5 25 -30 0 -20 5 -30
15 -30 8 0 15 -9 15 -20 0 -13 7 -20 20 -20 17 0 20 -7 20 -50 0 -47 2 -50 25
-50 20 0 25 -5 25 -25 0 -18 5 -25 20 -25 17 0 20 -7 20 -45 0 -41 2 -45 25
-45 23 0 25 -3 25 -50 0 -43 3 -50 20 -50 17 0 20 -7 20 -50 0 -43 3 -50 20
-50 17 0 20 -7 20 -45 0 -38 3 -45 20 -45 16 0 20 -7 20 -30 0 -23 4 -30 20
-30 18 0 20 -7 20 -70 0 -68 1 -70 25 -70 24 0 25 -2 25 -70 0 -63 2 -70 20
-70 18 0 20 -7 20 -70 0 -63 2 -70 20 -70 19 0 20 -7 20 -125 0 -118 1 -125
20 -125 19 0 20 -7 20 -120 l0 -120 25 0 25 0 0 -410 0 -410 -25 0 -25 0 0
-170 c0 -163 -1 -170 -20 -170 -19 0 -20 -7 -20 -95 0 -88 -1 -95 -20 -95 -18
0 -20 -7 -20 -70 0 -63 -2 -70 -20 -70 -18 0 -20 -7 -20 -80 0 -79 0 -80 -25
-80 -23 0 -25 -4 -25 -45 0 -38 -3 -45 -20 -45 -17 0 -20 -7 -20 -45 0 -38 -3
-45 -20 -45 -17 0 -20 -7 -20 -50 0 -43 -3 -50 -20 -50 -15 0 -20 -7 -20 -25
0 -18 -5 -25 -20 -25 -17 0 -20 -7 -20 -50 0 -47 -2 -50 -25 -50 -20 0 -25 -5
-25 -25 0 -18 -5 -25 -20 -25 -13 0 -20 -7 -20 -20 0 -15 -7 -20 -25 -20 -23
0 -25 -3 -25 -50 0 -43 -3 -50 -20 -50 -15 0 -20 -7 -20 -25 0 -16 -6 -25 -15
-25 -8 0 -15 -9 -15 -20 0 -15 -7 -20 -25 -20 -21 0 -25 -5 -25 -30 0 -23 -4
-30 -20 -30 -13 0 -20 -7 -20 -20 0 -15 -7 -20 -25 -20 -20 0 -25 -5 -25 -25
0 -18 -5 -25 -20 -25 -15 0 -20 -7 -20 -25 0 -18 -5 -25 -20 -25 -13 0 -20 -7
-20 -20 0 -17 -7 -20 -45 -20 -43 0 -45 -1 -45 -30 0 -23 -4 -30 -20 -30 -13
0 -20 -7 -20 -20 0 -13 -7 -20 -20 -20 -16 0 -20 -7 -20 -30 0 -28 -2 -30 -40
-30 -33 0 -40 -3 -40 -20 0 -15 -7 -20 -25 -20 -20 0 -25 -5 -25 -25 0 -23 -4
-25 -45 -25 -41 0 -45 -2 -45 -25 0 -22 -4 -25 -35 -25 -28 0 -35 -4 -35 -20
0 -15 -7 -20 -25 -20 -21 0 -25 -5 -25 -30 0 -29 -2 -30 -45 -30 -38 0 -45 -3
-45 -20 0 -17 -7 -20 -44 -20 -39 0 -43 -2 -42 -22 1 -20 -5 -23 -41 -26 -38
-3 -43 -6 -43 -28 0 -21 -4 -24 -40 -24 -36 0 -40 -2 -40 -25 0 -22 -4 -25
-40 -25 -36 0 -40 -2 -40 -25 0 -23 -4 -25 -45 -25 -38 0 -45 -3 -45 -20 0
-17 -7 -20 -45 -20 -41 0 -45 -2 -45 -25 0 -22 -4 -25 -40 -25 -36 0 -40 -2
-40 -25 0 -23 -4 -25 -45 -25 -41 0 -45 -2 -45 -25 0 -23 -4 -25 -45 -25 -38
0 -45 -3 -45 -20 0 -16 -7 -20 -35 -20 -32 0 -35 -2 -35 -30 0 -25 -4 -30 -25
-30 -18 0 -25 -5 -25 -20 0 -17 -7 -20 -45 -20 -43 0 -45 -1 -45 -30 0 -28 -2
-30 -40 -30 -33 0 -40 -3 -40 -20 0 -13 -7 -20 -20 -20 -13 0 -20 -7 -20 -20
0 -17 -7 -20 -45 -20 -43 0 -45 -1 -45 -30 0 -23 -4 -30 -20 -30 -13 0 -20 -7
-20 -20 0 -13 -7 -20 -20 -20 -16 0 -20 -7 -20 -30 0 -23 -4 -30 -20 -30 -13
0 -20 -7 -20 -20 0 -15 -7 -20 -25 -20 -20 0 -25 -5 -25 -25 0 -18 -5 -25 -20
-25 -15 0 -20 -7 -20 -25 0 -20 -5 -25 -25 -25 -18 0 -25 -5 -25 -20 0 -11 -7
-20 -15 -20 -11 0 -15 -12 -15 -50 0 -43 -3 -50 -20 -50 -17 0 -20 -7 -20 -50
0 -47 -2 -50 -25 -50 -24 0 -25 -2 -25 -75 0 -68 -2 -75 -20 -75 -20 0 -20 -7
-20 -290 0 -283 0 -290 20 -290 19 0 20 -7 20 -120 l0 -120 25 0 c23 0 25 -4
25 -45 0 -38 3 -45 20 -45 18 0 20 -7 20 -75 0 -60 3 -75 15 -75 9 0 15 -9 15
-25 0 -20 5 -25 25 -25 23 0 25 -4 25 -45 0 -38 3 -45 20 -45 15 0 20 -7 20
-25 0 -20 5 -25 25 -25 20 0 25 -5 25 -25 0 -18 5 -25 20 -25 15 0 20 -7 20
-25 0 -18 5 -25 20 -25 13 0 20 -7 20 -20 0 -13 7 -20 20 -20 16 0 20 -7 20
-30 0 -29 2 -30 45 -30 38 0 45 -3 45 -20 0 -17 7 -20 45 -20 38 0 45 -3 45
-20 0 -17 7 -20 40 -20 38 0 40 -2 40 -30 l0 -30 65 0 c58 0 65 -2 65 -20 0
-18 7 -20 60 -20 l60 0 0 -30 0 -30 130 0 c123 0 130 -1 130 -20 0 -20 7 -20
315 -20 308 0 315 0 315 20 0 19 7 20 150 20 l150 0 0 30 0 30 110 0 c103 0
110 1 110 20 0 18 7 20 80 20 l80 0 0 30 0 30 90 0 c83 0 90 1 90 20 0 17 7
20 40 20 33 0 40 3 40 20 0 18 7 20 65 20 l65 0 0 30 0 30 65 0 c58 0 65 2 65
20 0 17 7 20 45 20 41 0 45 2 45 25 0 22 4 25 35 25 31 0 35 3 35 25 0 23 4
25 45 25 41 0 45 2 45 25 0 23 4 25 45 25 41 0 45 2 45 25 0 18 5 25 20 25 13
0 20 7 20 20 0 17 7 20 40 20 36 0 40 3 40 25 0 23 4 25 45 25 41 0 45 2 45
25 0 20 5 25 25 25 20 0 24 5 22 23 -2 19 3 22 41 25 37 3 42 6 42 28 0 17 5
24 20 24 15 0 20 7 20 25 0 18 5 25 20 25 13 0 20 7 20 20 0 17 7 20 40 20 36
0 40 3 40 25 0 20 5 25 25 25 20 0 25 5 25 25 0 18 5 25 20 25 15 0 20 7 20
25 0 20 5 25 25 25 20 0 25 5 25 25 0 18 5 25 20 25 13 0 20 7 20 20 0 13 7
20 20 20 16 0 20 7 20 30 0 23 4 30 20 30 13 0 20 7 20 20 0 17 7 20 45 20
l45 0 0 50 c0 43 3 50 20 50 13 0 20 7 20 20 0 15 7 20 25 20 21 0 25 5 25 30
0 20 5 30 15 30 8 0 15 9 15 20 0 15 7 20 25 20 20 0 25 5 25 25 0 18 5 25 20
25 15 0 20 7 20 25 0 18 5 25 20 25 15 0 20 7 20 25 0 20 5 25 25 25 23 0 25
4 25 45 0 37 3 45 19 45 13 0 18 7 17 23 -1 16 5 23 22 25 16 3 22 10 22 28 0
17 5 24 20 24 17 0 20 7 20 50 0 47 2 50 25 50 20 0 25 5 25 25 0 18 5 25 20
25 17 0 20 7 20 50 0 47 2 50 25 50 23 0 25 4 25 45 0 33 4 45 15 45 9 0 15 9
15 25 0 18 5 25 20 25 17 0 20 7 20 50 0 47 2 50 25 50 23 0 25 3 25 50 0 43
3 50 20 50 17 0 20 7 20 40 0 36 3 40 25 40 23 0 25 3 25 50 0 38 4 50 15 50
11 0 15 12 15 50 0 47 2 50 25 50 24 0 25 2 25 75 0 68 2 75 20 75 18 0 20 7
20 70 0 63 2 70 20 70 18 0 20 7 20 70 0 68 1 70 25 70 l25 0 0 100 c0 93 1
100 20 100 19 0 20 7 20 100 0 93 1 100 20 100 19 0 20 7 20 165 0 158 1 165
20 165 20 0 20 7 20 510 0 503 0 510 -20 510 -19 0 -20 7 -20 140 0 133 -1
140 -20 140 -19 0 -20 7 -20 95 0 88 -1 95 -20 95 -19 0 -20 7 -20 100 l0 100
-25 0 c-24 0 -25 2 -25 70 0 63 -2 70 -20 70 -18 0 -20 7 -20 75 0 68 -2 75
-20 75 -18 0 -20 7 -20 75 0 73 -1 75 -25 75 -23 0 -25 4 -25 45 0 33 -4 45
-15 45 -11 0 -15 12 -15 50 0 47 -2 50 -25 50 -23 0 -25 3 -25 50 0 43 -3 50
-20 50 -17 0 -20 7 -20 45 0 41 -2 45 -25 45 -23 0 -25 4 -25 45 0 38 -3 45
-20 45 -16 0 -20 7 -20 30 0 20 -5 30 -15 30 -11 0 -15 12 -15 50 0 47 -2 50
-25 50 -22 0 -25 4 -25 40 0 33 -3 40 -20 40 -16 0 -20 7 -20 30 0 25 -4 30
-25 30 -18 0 -25 5 -25 20 0 13 -7 20 -20 20 -17 0 -20 7 -20 50 0 43 -3 50
-20 50 -18 0 -25 11 -21 33 1 5 -8 11 -19 14 -13 3 -20 14 -20 29 0 19 -5 24
-25 24 -23 0 -25 3 -25 50 0 43 -3 50 -20 50 -13 0 -20 7 -20 20 0 13 -7 20
-20 20 -15 0 -20 7 -20 25 0 20 -5 25 -25 25 -20 0 -25 5 -25 25 0 16 -6 25
-15 25 -9 0 -15 9 -15 25 0 20 -5 25 -25 25 -20 0 -25 5 -25 25 0 18 -5 25
-20 25 -15 0 -20 7 -20 25 0 20 -5 25 -25 25 -18 0 -25 5 -25 20 0 13 -7 20
-20 20 -15 0 -20 7 -20 25 0 18 -5 25 -20 25 -15 0 -20 7 -20 25 0 18 -5 25
-20 25 -13 0 -20 7 -20 20 0 13 -7 20 -20 20 -16 0 -20 7 -20 30 0 29 -2 30
-45 30 -38 0 -45 3 -45 20 0 15 -7 20 -25 20 -21 0 -25 5 -25 30 0 20 -5 30
-15 30 -8 0 -15 9 -15 20 0 17 -7 20 -45 20 -38 0 -45 3 -45 20 0 13 -7 20
-20 20 -16 0 -20 7 -20 30 0 25 -4 30 -25 30 -18 0 -25 5 -25 20 0 17 -7 20
-40 20 -38 0 -40 2 -40 30 0 29 -2 30 -45 30 -38 0 -45 3 -45 20 0 13 -7 20
-20 20 -15 0 -20 7 -20 25 0 23 -4 25 -40 25 -36 0 -40 3 -40 25 0 23 -4 25
-45 25 -41 0 -45 2 -45 25 0 23 -4 25 -45 25 -41 0 -45 2 -45 25 0 22 -4 25
-35 25 -28 0 -35 4 -35 20 0 17 -7 20 -45 20 -41 0 -45 2 -45 25 0 24 -2 25
-65 25 -63 0 -65 1 -65 25 0 24 -2 25 -65 25 -63 0 -65 1 -65 25 0 24 -3 25
-60 25 -57 0 -60 1 -60 25 0 25 -1 25 -90 25 -89 0 -90 0 -90 25 0 24 -3 25
-60 25 -53 0 -60 2 -60 20 0 19 -7 20 -150 20 l-150 0 0 25 0 25 -258 0 -258
0 0 -25z"/>
<path d="M6770 13215 l0 -25 -125 0 -125 0 0 -25 c0 -25 -1 -25 -85 -25 -84 0
-85 0 -85 -25 0 -25 -1 -25 -85 -25 -84 0 -85 0 -85 -25 0 -24 -2 -25 -65 -25
-58 0 -65 -2 -65 -20 0 -18 -7 -20 -60 -20 l-60 0 0 -30 0 -30 -65 0 c-58 0
-65 -2 -65 -20 0 -17 -7 -20 -45 -20 -41 0 -45 -2 -45 -25 0 -22 -4 -25 -40
-25 -36 0 -40 -2 -40 -25 0 -22 -4 -25 -40 -25 -33 0 -40 -3 -40 -20 0 -17 -7
-20 -45 -20 -43 0 -45 -1 -45 -30 0 -29 -2 -30 -45 -30 -38 0 -45 -3 -45 -20
0 -17 -7 -20 -40 -20 -38 0 -40 -2 -40 -30 0 -23 -4 -30 -20 -30 -13 0 -20 -7
-20 -20 0 -17 -7 -20 -45 -20 -38 0 -45 -3 -45 -20 0 -17 -7 -20 -40 -20 -38
0 -40 -2 -40 -30 0 -23 -4 -30 -20 -30 -13 0 -20 -7 -20 -20 0 -15 -7 -20 -25
-20 -21 0 -25 -5 -25 -30 0 -29 -2 -30 -45 -30 -38 0 -45 -3 -45 -20 0 -11 -7
-20 -15 -20 -9 0 -15 -9 -15 -25 0 -20 -5 -25 -25 -25 -20 0 -25 -5 -25 -25 0
-18 -5 -25 -20 -25 -13 0 -20 -7 -20 -20 0 -15 -7 -20 -25 -20 -20 0 -25 -5
-25 -25 0 -18 -5 -25 -20 -25 -15 0 -20 -7 -20 -25 0 -22 -4 -25 -40 -25 -36
0 -40 -2 -40 -25 0 -18 -5 -25 -20 -25 -15 0 -20 -7 -20 -25 0 -20 -5 -25 -25
-25 -20 0 -25 -5 -25 -25 0 -18 -5 -25 -20 -25 -13 0 -20 -7 -20 -20 0 -15 -7
-20 -25 -20 -23 0 -25 -3 -25 -50 0 -38 -4 -50 -15 -50 -9 0 -15 -9 -15 -25 0
-18 -5 -25 -20 -25 -15 0 -20 -7 -20 -25 0 -20 -5 -25 -25 -25 -18 0 -25 -5
-25 -20 0 -13 -7 -20 -20 -20 -16 0 -20 -7 -20 -30 0 -25 -4 -30 -25 -30 -18
0 -25 -5 -25 -19 0 -10 -9 -21 -19 -24 -16 -4 -19 -12 -16 -51 2 -42 0 -46
-21 -46 -17 0 -24 -6 -24 -20 0 -13 -7 -20 -20 -20 -16 0 -20 -7 -20 -30 0
-25 -4 -30 -25 -30 -23 0 -25 -3 -25 -50 0 -43 -3 -50 -20 -50 -17 0 -20 -7
-20 -45 0 -38 -3 -45 -20 -45 -15 0 -20 -7 -20 -25 0 -18 -5 -25 -20 -25 -17
0 -20 -7 -20 -50 0 -43 -3 -50 -20 -50 -17 0 -20 -7 -20 -45 0 -41 -2 -45 -25
-45 -23 0 -25 -3 -25 -50 0 -43 -3 -50 -20 -50 -17 0 -20 -7 -20 -50 0 -47 -2
-50 -25 -50 -23 0 -25 -4 -25 -44 0 -34 -4 -45 -19 -49 -14 -3 -18 -13 -16
-42 1 -29 -3 -39 -17 -43 -15 -4 -18 -15 -18 -83 0 -78 0 -79 -25 -79 -24 0
-25 -2 -25 -70 0 -63 -2 -70 -20 -70 -18 0 -20 -7 -20 -70 0 -68 -1 -70 -25
-70 l-25 0 0 -100 c0 -93 -1 -100 -20 -100 -19 0 -20 -7 -20 -115 0 -108 -1
-115 -20 -115 -19 0 -20 -7 -20 -170 0 -163 -1 -170 -20 -170 -20 0 -20 -7
-20 -415 0 -408 0 -415 20 -415 19 0 20 -7 20 -140 0 -133 1 -140 20 -140 19
0 20 -7 20 -120 0 -113 1 -120 20 -120 19 0 20 -7 20 -100 l0 -100 25 0 c25 0
25 0 25 -95 0 -88 1 -95 20 -95 17 0 20 -7 20 -50 0 -47 2 -50 25 -50 24 0 25
-2 25 -70 0 -61 2 -70 18 -70 15 0 18 -9 17 -70 -1 -61 2 -70 17 -70 15 0 18
-9 18 -50 0 -47 2 -50 25 -50 23 0 25 -3 25 -50 0 -43 3 -50 20 -50 17 0 20
-7 20 -50 0 -47 2 -50 25 -50 23 0 25 -3 25 -50 0 -43 3 -50 20 -50 13 0 20
-7 20 -20 0 -13 7 -20 20 -20 17 0 20 -7 20 -50 0 -43 3 -50 20 -50 15 0 20
-7 20 -25 0 -18 5 -25 20 -25 17 0 20 -7 20 -50 0 -47 2 -50 25 -50 18 0 25
-5 25 -20 0 -13 7 -20 20 -20 17 0 20 -7 20 -49 0 -44 3 -50 23 -53 15 -2 21
-9 19 -21 -2 -12 4 -21 17 -24 14 -3 21 -14 21 -29 0 -19 5 -24 25 -24 23 0
25 -3 25 -50 0 -43 3 -50 20 -50 13 0 20 -7 20 -20 0 -15 7 -20 25 -20 18 0
25 -5 25 -20 0 -13 7 -20 20 -20 16 0 20 -7 20 -30 0 -20 5 -30 15 -30 8 0 15
-9 15 -20 0 -15 7 -20 25 -20 21 0 25 -5 25 -30 0 -23 4 -30 20 -30 13 0 20
-7 20 -20 0 -15 7 -20 25 -20 21 0 25 -5 25 -30 0 -23 4 -30 20 -30 13 0 20
-7 20 -20 0 -13 7 -20 20 -20 15 0 20 -7 20 -25 0 -18 5 -25 20 -25 15 0 20
-7 20 -25 0 -18 5 -25 20 -25 13 0 20 -7 20 -20 0 -15 7 -20 25 -20 20 0 25
-5 25 -25 0 -23 4 -25 45 -25 41 0 45 -2 45 -25 0 -16 6 -25 15 -25 9 0 15 -9
15 -25 0 -20 5 -25 25 -25 20 0 25 -5 25 -25 0 -23 4 -25 45 -25 41 0 45 -2
45 -25 0 -18 5 -25 20 -25 13 0 20 -7 20 -20 0 -17 7 -20 40 -20 36 0 40 -2
40 -25 0 -18 5 -25 20 -25 15 0 20 -7 20 -25 0 -23 4 -25 45 -25 41 0 45 -2
45 -25 0 -22 4 -25 40 -25 36 0 40 -2 40 -25 0 -18 5 -25 20 -25 13 0 20 -7
20 -20 0 -17 7 -20 45 -20 43 0 45 -1 45 -30 l0 -30 65 0 c58 0 65 -2 65 -20
0 -17 7 -20 40 -20 38 0 40 -2 40 -30 0 -29 2 -30 45 -30 38 0 45 -3 45 -20 0
-18 7 -20 65 -20 58 0 65 -2 65 -20 0 -18 7 -20 60 -20 l60 0 0 -30 0 -30 65
0 c58 0 65 -2 65 -20 0 -18 7 -20 85 -20 l85 0 0 -30 0 -30 85 0 c78 0 85 -2
85 -20 0 -19 7 -20 150 -20 l150 0 0 -25 0 -25 210 0 210 0 0 25 c0 18 -5 25
-20 25 -13 0 -20 7 -20 20 0 17 -7 20 -40 20 -38 0 -40 2 -40 30 0 25 -4 30
-25 30 -18 0 -25 5 -25 20 0 17 -7 20 -40 20 -38 0 -40 2 -40 30 0 28 -2 30
-40 30 -33 0 -40 3 -40 20 0 15 -7 20 -25 20 -18 0 -25 5 -25 20 0 13 -7 20
-20 20 -16 0 -20 7 -20 30 0 25 -4 30 -25 30 -18 0 -25 5 -25 20 0 16 -7 20
-35 20 -32 0 -35 2 -35 30 0 25 -4 30 -25 30 -18 0 -25 5 -25 20 0 13 -7 20
-20 20 -15 0 -20 7 -20 25 0 20 -5 25 -25 25 -20 0 -25 5 -25 25 0 18 -5 25
-20 25 -15 0 -20 7 -20 25 0 18 -5 25 -20 25 -15 0 -20 7 -20 25 0 18 -5 25
-20 25 -13 0 -20 7 -20 20 0 15 -7 20 -25 20 -20 0 -25 5 -25 25 0 18 -5 25
-20 25 -17 0 -20 7 -20 50 0 43 -3 50 -20 50 -15 0 -20 7 -20 24 0 18 -6 25
-22 28 -17 2 -23 9 -22 26 1 15 -4 22 -17 22 -16 0 -19 8 -19 45 0 41 -2 45
-25 45 -20 0 -25 5 -25 25 0 18 -5 25 -20 25 -17 0 -20 7 -20 50 0 47 -2 50
-25 50 -23 0 -25 3 -25 50 0 43 -3 50 -20 50 -17 0 -20 7 -20 50 0 38 -4 50
-15 50 -11 0 -15 11 -15 40 0 36 -2 40 -25 40 -23 0 -25 3 -25 50 0 43 -3 50
-20 50 -18 0 -20 7 -20 75 0 73 -1 75 -25 75 -24 0 -25 2 -25 70 0 63 -2 70
-20 70 -18 0 -20 7 -20 75 0 68 -2 75 -20 75 -19 0 -20 7 -20 120 0 113 -1
120 -20 120 -19 0 -20 7 -20 195 l0 195 -25 0 -25 0 0 265 0 265 25 0 25 0 0
170 c0 163 1 170 20 170 19 0 20 7 20 120 0 113 1 120 20 120 18 0 20 7 20 70
0 63 2 70 20 70 18 0 20 7 20 75 0 73 1 75 25 75 23 0 25 4 25 45 0 38 3 45
20 45 17 0 20 7 20 50 0 47 2 50 25 50 23 0 25 4 25 45 0 33 4 45 15 45 10 0
15 10 15 30 0 23 4 30 20 30 17 0 20 7 20 45 0 41 2 45 25 45 20 0 25 5 25 25
0 18 5 25 20 25 17 0 20 7 20 50 0 47 2 50 25 50 18 0 25 5 25 20 0 13 7 20
18 20 13 0 18 7 18 28 -1 21 4 28 22 30 14 2 22 10 22 23 0 12 7 19 20 19 15
0 20 7 20 25 0 18 5 25 20 25 15 0 20 7 20 25 0 20 5 25 25 25 18 0 25 5 25
20 0 13 7 20 20 20 16 0 20 7 20 30 0 23 4 30 20 30 13 0 20 7 20 20 0 13 7
20 20 20 15 0 20 7 20 25 0 23 4 25 45 25 41 0 45 2 45 25 0 20 5 25 25 25 20
0 25 5 25 25 0 22 4 25 35 25 28 0 35 4 35 20 0 15 7 20 25 20 20 0 25 5 25
25 0 23 4 25 45 25 41 0 45 2 45 25 0 18 5 25 20 25 15 0 20 7 20 25 0 23 4
25 40 25 36 0 40 3 40 25 0 23 4 25 45 25 38 0 45 3 45 20 0 17 7 20 40 20 38
0 40 2 40 30 0 23 4 30 20 30 13 0 20 7 20 20 0 17 7 20 45 20 41 0 45 2 45
25 0 23 4 25 45 25 41 0 45 2 45 25 0 23 4 25 40 25 33 0 40 3 40 20 0 17 7
20 45 20 43 0 45 1 45 30 0 28 2 30 40 30 33 0 40 3 40 20 0 17 7 20 40 20 38
0 40 2 40 30 0 29 2 30 45 30 38 0 45 3 45 20 0 17 7 20 40 20 36 0 40 3 40
25 0 23 4 25 45 25 41 0 45 2 45 25 0 23 4 25 45 25 38 0 45 3 45 20 0 11 7
20 15 20 10 0 15 10 15 30 0 29 2 30 45 30 38 0 45 3 45 20 0 15 7 20 25 20
20 0 25 5 25 25 0 23 4 25 44 25 40 0 44 2 41 21 -3 15 2 23 15 26 13 3 20 14
20 29 0 17 6 24 20 24 13 0 20 7 20 20 0 15 7 20 25 20 20 0 25 5 25 25 0 18
5 25 20 25 15 0 20 7 20 25 0 20 5 25 25 25 23 0 25 3 25 50 0 38 4 50 15 50
8 0 15 9 15 20 0 15 7 20 25 20 23 0 25 3 25 50 0 43 3 50 20 50 18 0 20 7 20
70 0 63 2 70 20 70 20 0 20 7 20 365 0 358 0 365 -20 365 -18 0 -20 7 -20 70
0 63 -2 70 -20 70 -18 0 -20 7 -20 80 0 79 0 80 -25 80 -22 0 -25 4 -25 40 0
29 -4 40 -15 40 -10 0 -15 10 -15 30 0 25 -4 30 -25 30 -23 0 -25 3 -25 50 0
43 -3 50 -20 50 -13 0 -20 7 -20 20 0 15 -7 20 -25 20 -20 0 -25 5 -25 25 0
18 -5 25 -20 25 -14 0 -20 7 -20 24 0 15 -7 26 -20 29 -11 3 -19 11 -18 19 2
9 -10 14 -39 16 -40 3 -43 5 -43 33 0 24 -4 29 -25 29 -18 0 -25 5 -25 20 0
17 -7 20 -45 20 -41 0 -45 2 -45 25 0 24 -3 25 -60 25 -57 0 -60 1 -60 25 0
24 -3 25 -60 25 -57 0 -60 1 -60 25 l0 25 -110 0 -110 0 0 25 0 25 -450 0
-450 0 0 -25z"/>
<path d="M1340 2710 l0 -530 105 0 105 0 0 215 0 215 150 0 150 0 0 100 0 100
-150 0 -150 0 0 95 0 95 165 0 165 0 0 95 c0 78 -3 95 -15 95 -9 0 -15 9 -15
25 l0 25 -255 0 -255 0 0 -530z"/>
<path d="M2020 2710 l0 -530 230 0 230 0 0 95 0 95 -125 0 -125 0 0 410 0 410
-25 0 c-20 0 -25 5 -25 25 0 25 -1 25 -80 25 l-80 0 0 -530z"/>
<path d="M2650 3215 c0 -18 -5 -25 -20 -25 -20 0 -20 -7 -20 -505 l0 -505 105
0 105 0 0 505 c0 498 0 505 -20 505 -15 0 -20 7 -20 25 0 24 -2 25 -65 25 -63
0 -65 -1 -65 -25z"/>
<path d="M3030 2710 l0 -530 110 0 110 0 0 165 0 165 85 0 85 0 0 30 0 30 60
0 c53 0 60 2 60 20 0 17 7 20 45 20 43 0 45 1 45 30 0 25 4 30 25 30 24 0 25
2 25 69 0 58 3 70 18 73 14 3 17 14 17 71 0 57 -2 67 -17 67 -16 0 -18 10 -18
70 0 68 -1 70 -25 70 -21 0 -25 5 -25 30 0 29 -2 30 -45 30 -38 0 -45 3 -45
20 0 18 -7 20 -60 20 -57 0 -60 1 -60 25 l0 25 -195 0 -195 0 0 -530z m430
265 c0 -18 5 -25 20 -25 18 0 20 -7 20 -70 0 -63 -2 -70 -20 -70 -16 0 -20 -7
-20 -30 l0 -30 -105 0 -105 0 0 125 0 125 105 0 105 0 0 -25z"/>
<path d="M3840 2710 l0 -530 105 0 105 0 0 165 0 165 85 0 85 0 0 30 0 30 70
0 c63 0 70 2 70 20 0 16 7 20 35 20 32 0 35 2 35 30 0 25 4 30 25 30 24 0 25
2 25 70 0 63 2 70 20 70 19 0 20 7 20 95 0 88 -1 95 -20 95 -17 0 -20 7 -20
45 0 41 -2 45 -25 45 -21 0 -25 5 -25 30 0 28 -3 30 -35 30 -28 0 -35 4 -35
20 0 18 -7 20 -70 20 -68 0 -70 1 -70 25 l0 25 -190 0 -190 0 0 -530z m430
265 c0 -18 5 -25 20 -25 18 0 20 -7 20 -70 0 -63 -2 -70 -20 -70 -16 0 -20 -7
-20 -30 l0 -30 -110 0 -110 0 0 125 0 125 110 0 110 0 0 -25z"/>
<path d="M4650 2710 l0 -530 110 0 110 0 0 505 0 505 -25 0 c-20 0 -25 5 -25
25 0 25 -1 25 -85 25 l-85 0 0 -530z"/>
<path d="M5080 2710 l0 -530 85 0 c84 0 85 0 85 25 0 18 5 25 20 25 20 0 20 7
20 290 l0 290 25 0 c23 0 25 -3 25 -50 0 -38 4 -50 15 -50 8 0 15 -9 15 -20 0
-13 7 -20 20 -20 17 0 20 -7 20 -50 0 -47 2 -50 25 -50 23 0 25 -3 25 -50 0
-43 3 -50 20 -50 15 0 20 -7 20 -25 0 -20 5 -25 25 -25 23 0 25 -3 25 -50 0
-38 4 -50 15 -50 9 0 15 -9 15 -25 0 -20 5 -25 25 -25 23 0 25 -4 25 -45 l0
-45 125 0 125 0 0 505 c0 498 0 505 -20 505 -15 0 -20 7 -20 25 0 24 -2 25
-65 25 -63 0 -65 -1 -65 -25 0 -18 -5 -25 -20 -25 -20 0 -20 -7 -20 -310 0
-303 0 -310 -20 -310 -17 0 -20 7 -20 50 0 47 -2 50 -25 50 -18 0 -25 5 -25
20 0 11 -7 20 -15 20 -11 0 -15 12 -15 50 0 47 -2 50 -25 50 -23 0 -25 3 -25
50 0 43 -3 50 -20 50 -13 0 -20 7 -20 20 0 15 -7 20 -25 20 -23 0 -25 3 -25
50 0 43 -3 50 -20 50 -13 0 -20 7 -20 20 0 11 -7 20 -15 20 -11 0 -15 12 -15
50 0 47 -2 50 -25 50 -20 0 -25 5 -25 25 l0 25 -105 0 -105 0 0 -530z"/>
<path d="M6440 3215 c0 -25 -1 -25 -89 -25 -84 0 -90 -1 -86 -20 3 -14 -2 -20
-16 -20 -14 0 -19 -7 -19 -30 0 -29 -2 -30 -45 -30 l-45 0 0 -45 c0 -41 -2
-45 -25 -45 -20 0 -25 -5 -25 -25 0 -18 -5 -25 -20 -25 -19 0 -20 -7 -20 -100
0 -82 -3 -100 -15 -100 -11 0 -15 -11 -15 -40 0 -29 4 -40 15 -40 12 0 15 -18
15 -100 0 -93 1 -100 20 -100 17 0 20 -7 20 -50 0 -47 2 -50 25 -50 20 0 25
-5 25 -25 0 -18 5 -25 20 -25 15 0 20 -7 20 -25 0 -20 5 -25 25 -25 18 0 25
-5 25 -20 0 -17 7 -20 40 -20 36 0 40 -2 40 -25 l0 -25 170 0 170 0 0 25 c0
23 4 25 44 25 39 0 44 2 41 20 -3 14 2 20 16 20 16 0 19 -7 19 -45 l0 -45 90
0 90 0 0 285 0 285 -235 0 -235 0 0 -90 0 -90 128 0 129 0 -2 -27 c0 -18 -7
-29 -18 -31 -9 -2 -17 -12 -17 -23 0 -14 -7 -19 -25 -19 -20 0 -25 -5 -25 -25
0 -18 -5 -25 -20 -25 -15 0 -20 -7 -20 -25 0 -25 -1 -25 -85 -25 -84 0 -85 0
-85 25 0 24 -2 25 -65 25 l-65 0 0 45 c0 40 -2 45 -23 45 -22 0 -23 3 -22 76
1 67 -1 77 -17 82 -26 6 -26 78 0 84 15 4 18 16 17 82 0 73 1 76 22 76 16 0
23 6 23 20 0 13 7 20 20 20 15 0 20 7 20 25 l0 25 150 0 150 0 0 -25 c0 -20 5
-25 25 -25 18 0 25 -5 25 -20 0 -18 7 -20 60 -20 53 0 60 2 60 20 0 17 7 20
45 20 41 0 45 2 45 25 0 20 -5 25 -25 25 -20 0 -25 5 -25 25 0 18 -5 25 -20
25 -13 0 -20 7 -20 20 0 15 -7 20 -25 20 -21 0 -25 5 -25 29 0 20 -6 30 -20
34 -11 3 -19 11 -18 19 2 9 -14 14 -59 16 -59 3 -63 4 -63 27 0 25 -1 25 -85
25 -84 0 -85 0 -85 -25z"/>
<path d="M7450 3215 c0 -16 -6 -25 -15 -25 -13 0 -15 -63 -15 -505 l0 -505
105 0 105 0 0 530 0 530 -90 0 c-89 0 -90 0 -90 -25z"/>
<path d="M7890 3215 c0 -20 -5 -25 -25 -25 l-25 0 0 -505 0 -505 110 0 110 0
0 335 c0 328 0 335 20 335 17 0 20 -7 20 -50 0 -38 4 -50 15 -50 11 0 15 -11
15 -40 0 -36 3 -40 25 -40 21 0 25 -5 25 -30 0 -23 4 -30 20 -30 17 0 20 -7
20 -50 0 -47 2 -50 25 -50 23 0 25 -4 25 -45 0 -38 3 -45 20 -45 15 0 20 -7
20 -25 0 -20 5 -25 23 -25 22 0 23 -4 22 -50 -1 -42 1 -50 17 -50 11 0 18 -7
18 -20 0 -13 7 -20 20 -20 15 0 20 -7 20 -25 l0 -25 110 0 110 0 0 530 0 530
-85 0 c-84 0 -85 0 -85 -25 0 -20 -5 -25 -25 -25 l-25 0 0 -290 c0 -283 0
-290 -20 -290 -16 0 -20 7 -20 30 0 22 -5 30 -18 30 -14 0 -18 8 -17 38 0 31
-4 38 -22 40 -20 3 -23 9 -23 53 0 42 -3 49 -20 49 -16 0 -20 7 -20 30 0 25
-4 30 -25 30 -23 0 -25 4 -25 45 0 38 -3 45 -20 45 -15 0 -20 7 -20 25 0 20
-5 25 -25 25 -23 0 -25 3 -25 50 0 38 -4 50 -15 50 -8 0 -15 9 -15 20 0 13 -7
20 -20 20 -15 0 -20 7 -20 25 0 25 -1 25 -85 25 -84 0 -85 0 -85 -25z"/>
<path d="M8900 3215 c0 -18 -5 -25 -20 -25 -20 0 -20 -7 -20 -505 l0 -505 255
0 255 0 0 25 c0 23 4 25 45 25 38 0 45 3 45 20 0 13 7 20 20 20 15 0 20 7 20
25 0 18 5 25 20 25 15 0 20 7 20 25 0 18 5 25 20 25 17 0 20 7 20 50 0 47 2
50 25 50 l25 0 0 240 0 240 -25 0 c-23 0 -25 3 -25 50 0 43 -3 50 -20 50 -13
0 -20 7 -20 20 0 13 -7 20 -20 20 -16 0 -20 7 -20 30 0 29 -2 30 -45 30 -38 0
-45 3 -45 20 0 18 -7 20 -80 20 -79 0 -80 0 -80 25 l0 25 -175 0 -175 0 0 -25z
m430 -240 c0 -18 5 -25 20 -25 17 0 20 -7 20 -50 0 -43 3 -50 20 -50 19 0 20
-7 20 -170 0 -163 -1 -170 -20 -170 -13 0 -20 -7 -20 -20 0 -13 -7 -20 -20
-20 -15 0 -20 -7 -20 -25 0 -24 -2 -25 -65 -25 -63 0 -65 -1 -65 -25 0 -24 -2
-25 -65 -25 l-65 0 0 315 0 315 130 0 130 0 0 -25z"/>
<path d="M9790 3215 c0 -18 -5 -25 -20 -25 -20 0 -20 -7 -20 -340 0 -333 0
-340 20 -340 18 0 20 -7 20 -70 0 -68 1 -70 25 -70 23 0 25 -3 25 -50 0 -43 3
-50 20 -50 13 0 20 -7 20 -20 0 -17 7 -20 45 -20 41 0 45 -2 45 -25 l0 -25
170 0 170 0 0 25 c0 23 4 25 45 25 38 0 45 3 45 20 0 13 7 20 20 20 17 0 20 7
20 50 0 38 4 50 15 50 13 0 15 55 15 435 l0 435 -80 0 c-79 0 -80 0 -80 -25 0
-20 -5 -25 -25 -25 l-25 0 0 -385 c0 -378 0 -385 -20 -385 -15 0 -20 -7 -20
-25 0 -25 -1 -25 -85 -25 -84 0 -85 0 -85 25 0 18 -5 25 -20 25 -17 0 -20 7
-20 45 0 38 -3 45 -20 45 -20 0 -20 7 -20 365 l0 365 -90 0 c-89 0 -90 0 -90
-25z"/>
<path d="M10904 3215 c5 -25 4 -25 -65 -25 -62 0 -69 -2 -69 -20 0 -13 -7 -20
-20 -20 -16 0 -20 -7 -20 -30 0 -23 -4 -30 -20 -30 -13 0 -20 -7 -20 -20 0
-13 -7 -20 -20 -20 -19 0 -20 -7 -20 -120 0 -113 1 -120 20 -120 16 0 20 -7
20 -30 0 -23 4 -30 20 -30 13 0 20 -7 20 -20 0 -13 7 -20 20 -20 13 0 20 -7
20 -20 0 -17 8 -19 68 -22 64 -3 67 -4 67 -28 0 -24 3 -25 63 -28 54 -3 62 -6
62 -22 0 -13 7 -20 20 -20 16 0 20 -7 20 -30 0 -25 4 -30 25 -30 23 0 25 -4
25 -45 0 -41 -2 -45 -25 -45 -20 0 -25 -5 -25 -25 0 -25 -1 -25 -84 -25 l-85
0 5 25 c4 21 1 25 -21 25 -23 0 -25 4 -25 45 l0 45 -105 0 c-98 0 -105 -1
-105 -20 0 -13 -7 -20 -20 -20 -15 0 -20 -7 -20 -25 0 -18 5 -25 20 -25 17 0
20 -7 20 -50 0 -43 3 -50 20 -50 15 0 20 -7 20 -25 0 -18 5 -25 20 -25 13 0
20 -7 20 -20 0 -17 7 -20 45 -20 41 0 45 -2 45 -25 l0 -25 165 0 165 0 0 25
c0 23 4 25 45 25 38 0 45 3 45 20 0 15 7 20 25 20 20 0 25 5 25 25 0 18 5 25
20 25 19 0 20 7 20 145 0 138 -1 145 -20 145 -16 0 -20 7 -20 30 0 25 -4 30
-25 30 -18 0 -25 5 -25 20 0 13 -7 20 -20 20 -13 0 -20 7 -20 20 0 17 -7 20
-40 20 -38 0 -40 2 -40 30 l0 30 -90 0 c-83 0 -90 1 -90 20 0 17 -7 20 -40 20
l-40 0 0 75 0 75 40 0 c36 0 40 3 40 25 0 23 4 25 45 25 41 0 45 -2 45 -25 0
-23 4 -25 45 -25 l45 0 0 -45 0 -45 85 0 c78 0 85 2 85 20 0 13 7 20 20 20 17
0 20 7 20 50 0 43 -3 50 -20 50 -13 0 -20 7 -20 20 0 15 -7 20 -25 20 -21 0
-25 5 -25 30 0 23 -4 30 -20 30 -13 0 -20 7 -20 20 0 18 -7 20 -65 20 -63 0
-65 1 -65 25 0 25 -1 25 -85 25 l-85 0 4 -25z"/>
<path d="M11410 3215 c0 -18 -5 -25 -20 -25 -19 0 -20 -7 -20 -95 l0 -95 110
0 110 0 0 -410 0 -410 105 0 105 0 0 410 0 410 105 0 105 0 0 120 0 120 -300
0 -300 0 0 -25z"/>
<path d="M12180 3215 c0 -20 -5 -25 -25 -25 l-25 0 0 -505 0 -505 110 0 110 0
0 215 c0 208 1 215 20 215 13 0 20 -7 20 -20 0 -13 7 -20 20 -20 17 0 20 -7
20 -50 0 -47 2 -50 25 -50 20 0 25 -5 25 -25 0 -18 5 -25 20 -25 17 0 20 -7
20 -50 0 -43 3 -50 20 -50 17 0 20 -7 20 -45 0 -38 3 -45 20 -45 15 0 20 -7
20 -25 l0 -25 130 0 130 0 0 25 c0 20 -5 25 -25 25 -23 0 -25 4 -25 45 0 38
-3 45 -20 45 -15 0 -20 7 -20 25 0 16 -6 25 -15 25 -9 0 -15 9 -15 25 0 20 -5
25 -25 25 -23 0 -25 4 -25 45 0 38 -3 45 -20 45 -16 0 -20 7 -20 30 0 25 -4
30 -25 30 -23 0 -25 3 -25 50 l0 50 45 0 c38 0 45 3 45 20 0 15 7 20 25 20 23
0 25 3 25 50 0 38 4 50 15 50 13 0 15 20 15 120 0 100 -2 120 -15 120 -8 0
-15 9 -15 20 0 15 -7 20 -25 20 -21 0 -25 5 -25 30 0 23 -4 30 -20 30 -13 0
-20 7 -20 20 0 18 -7 20 -85 20 -84 0 -85 0 -85 25 l0 25 -150 0 -150 0 0 -25z
m380 -310 l0 -95 -105 0 -105 0 0 95 0 95 105 0 105 0 0 -95z"/>
<path d="M12990 3215 c0 -18 -5 -25 -20 -25 -20 0 -20 -7 -20 -505 l0 -505
105 0 105 0 0 530 0 530 -85 0 c-84 0 -85 0 -85 -25z"/>
<path d="M13420 3215 c0 -20 -5 -25 -25 -25 l-25 0 0 -505 0 -505 275 0 275 0
0 95 0 95 -170 0 -170 0 0 120 0 120 150 0 150 0 0 100 0 100 -150 0 -150 0 0
95 0 95 170 0 170 0 0 120 0 120 -250 0 -250 0 0 -25z"/>
<path d="M14310 3215 c0 -24 -2 -25 -70 -25 -63 0 -70 -2 -70 -20 0 -11 -7
-20 -15 -20 -10 0 -15 -10 -15 -30 0 -25 -4 -30 -25 -30 -18 0 -25 -5 -25 -20
0 -13 -7 -20 -20 -20 -19 0 -20 -7 -20 -120 0 -113 1 -120 20 -120 16 0 20 -7
20 -30 0 -25 4 -30 25 -30 18 0 25 -5 25 -20 0 -11 7 -20 15 -20 8 0 15 -9 15
-20 0 -18 7 -20 70 -20 l70 0 0 -30 0 -30 60 0 c53 0 60 -2 60 -20 0 -17 7
-20 45 -20 l45 0 0 -100 0 -100 -105 0 -105 0 0 25 c0 20 -5 25 -25 25 -23 0
-25 4 -25 45 l0 45 -105 0 c-98 0 -105 -1 -105 -20 0 -13 -7 -20 -20 -20 -15
0 -20 -7 -20 -25 0 -18 5 -25 20 -25 17 0 20 -7 20 -50 0 -43 3 -50 20 -50 15
0 20 -7 20 -25 0 -20 5 -25 25 -25 18 0 25 -5 25 -20 0 -17 7 -20 40 -20 36 0
40 -2 40 -25 l0 -25 170 0 170 0 0 25 c0 23 4 25 40 25 33 0 40 3 40 20 0 15
7 20 25 20 20 0 25 5 25 25 0 18 5 25 20 25 19 0 20 7 20 145 0 138 -1 145
-20 145 -16 0 -20 7 -20 30 0 25 -4 30 -25 30 -18 0 -25 5 -25 20 0 11 -7 20
-15 20 -8 0 -15 9 -15 20 0 17 -7 20 -45 20 -43 0 -45 1 -45 30 l0 30 -65 0
c-58 0 -65 2 -65 20 0 18 -7 20 -65 20 l-65 0 0 75 0 75 45 0 c41 0 45 2 45
25 0 23 4 25 40 25 36 0 40 -2 40 -25 0 -23 4 -25 45 -25 l45 0 0 -45 0 -45
85 0 c78 0 85 2 85 20 0 13 7 20 20 20 17 0 20 7 20 50 0 43 -3 50 -20 50 -13
0 -20 7 -20 20 0 15 -7 20 -25 20 -21 0 -25 5 -25 30 0 20 -5 30 -15 30 -8 0
-15 9 -15 20 0 17 -7 20 -45 20 -41 0 -45 2 -45 25 l0 25 -105 0 -105 0 0 -25z"/>
</g>
</svg>
